<svg width="256" height="256" viewBox="0 0 256 256" fill="none" xmlns="http://www.w3.org/2000/svg">
  <!-- White Background -->
  <rect width="256" height="256" fill="white"/>

  <!-- Outer Border Frame -->
  <rect x="10" y="10" width="236" height="236" stroke="black" stroke-width="4"/>
  
  <!-- Inner "Notched" Frame -->
  <path d="M40 20H216M236 40V216M216 236H40M20 216V40" stroke="black" stroke-width="2"/>
  
  <!-- Corner Squares -->
  <rect x="4" y="4" width="32" height="32" stroke="black" stroke-width="3"/>
  <rect x="220" y="4" width="32" height="32" stroke="black" stroke-width="3"/>
  <rect x="4" y="220" width="32" height="32" stroke="black" stroke-width="3"/>
  <rect x="220" y="220" width="32" height="32" stroke="black" stroke-width="3"/>
  
  <!-- Corner Dots -->
  <circle cx="20" cy="20" r="4" fill="black"/>
  <circle cx="236" cy="20" r="4" fill="black"/>
  <circle cx="20" cy="236" r="4" fill="black"/>
  <circle cx="236" cy="236" r="4" fill="black"/>

  <!-- Mid-Side Dots -->
  <circle cx="128" cy="10" r="4" fill="black"/>
  <circle cx="128" cy="246" r="4" fill="black"/>
  <circle cx="10" cy="128" r="4" fill="black"/>
  <circle cx="246" cy="128" r="4" fill="black"/>

  <!-- Document Icon (Centered) -->
  <g transform="translate(64, 64) scale(0.5)">
    <!-- Rounded Rectangle Document Shape -->
    <path d="M64 32C55.1634 32 48 39.1634 48 48V208C48 216.837 55.1634 224 64 224H192C200.837 224 208 216.837 208 208V96L144 32H64Z" fill="black"/>
    
    <!-- Content Lines (White for visibility on black icon) -->
    <rect x="80" y="128" width="96" height="12" rx="6" fill="white"/>
    <rect x="80" y="156" width="96" height="12" rx="6" fill="white"/>
    <rect x="80" y="184" width="64" height="12" rx="6" fill="white"/>
  </g>
</svg>
